{"title":"Brazil(1985)MP-4[DaScubaDude]","uid":12349283,"size":1432704294,"categoryP":"video","categoryS":"movies","magnet":"?xt=urn:btih:e31a0f7e9541fc1cb5a216b53e7efda7e88337a8&amp;dn=Brazil%281985%29MP-4%5BDaScubaDude%5D&amp;tr=udp%3A%2F%2Ftracker.openbittorrent.com%3A80&amp;tr=udp%3A%2F%2Fopen.demonii.com%3A1337&amp;tr=udp%3A%2F%2Ftracker.coppersurfer.tk%3A6969&amp;tr=udp%3A%2F%2Fexodus.desync.com%3A6969","seeders":0,"leechers":0,"uploader":"dascuba","files":1,"time":1441397694,"description":"Brazil (1985)\nR  |  132 min  |  Sci-Fi  |  18 December 1985 (USA)\n8.0 Your rating:   -/10   Ratings: 8.0/10 from 142,267 users   Metascore: 88/100 \nReviews: 507 user | 227 critic | 12 from Metacritic.com\nA bureaucrat in a retro-future world tries to correct an administrative error and himself becomes an enemy of the state.\n\nDirector: Terry Gilliam\nWriters: Terry Gilliam (screenplay), Tom Stoppard (screenplay), 1 more credit Â»\nStars: Jonathan Pryce, Kim Greist, Robert De Niro \n\nGeneral\nComplete name                            : C:UsersbillVideosWinXVideosBRAZILOut_Title1.mp4\nFormat                                   : MPEG-4\nFormat profile                           : Base Media\nCodec ID                                 : isom\nFile size                                : 1.33 GiB\nDuration                                 : 2h 23mn\nOverall bit rate mode                    : Variable\nOverall bit rate                         : 1 334 Kbps\nMovie name                               : Out_Title1\nWriting application                      : Lavf54.6.100\n\nVideo\nID                                       : 1\nFormat                                   : AVC\nFormat/Info                              : Advanced Video Codec\nFormat profile                           : Baseline@L3\nFormat settings, CABAC                   : No\nFormat settings, ReFrames                : 6 frames\nCodec ID                                 : avc1\nCodec ID/Info                            : Advanced Video Coding\nDuration                                 : 2h 23mn\nBit rate                                 : 1 199 Kbps\nWidth                                    : 720 pixels\nHeight                                   : 540 pixels\nDisplay aspect ratio                     : 4:3\nFrame rate mode                          : Constant\nFrame rate                               : 29.970 fps\nColor space                              : YUV\nChroma subsampling                       : 4:2:0\nBit depth                                : 8 bits\nScan type                                : Progressive\nBits/(Pixel*Frame)                       : 0.103\nStream size                              : 1.20 GiB (90%)\n\nAudio\nID                                       : 2\nFormat                                   : AAC\nFormat/Info                              : Advanced Audio Codec\nFormat profile                           : LC\nCodec ID                                 : 40\nDuration                                 : 2h 23mn\nBit rate mode                            : Variable\nBit rate                                 : 128 Kbps\nMaximum bit rate                         : 176 Kbps\nChannel(s)                               : 2 channels\nChannel positions                        : Front: L R\nSampling rate                            : 44.1 KHz\nCompression mode                         : Lossy\nStream size                              : 131 MiB (10%)","torrent":{"xt":"urn:btih:e31a0f7e9541fc1cb5a216b53e7efda7e88337a8","amp;dn":"Brazil%281985%29MP-4%5BDaScubaDude%5D","amp;tr":["udp%3A%2F%2Ftracker.openbittorrent.com%3A80","udp%3A%2F%2Fopen.demonii.com%3A1337","udp%3A%2F%2Ftracker.coppersurfer.tk%3A6969","udp%3A%2F%2Fexodus.desync.com%3A6969"],"infoHash":"e31a0f7e9541fc1cb5a216b53e7efda7e88337a8","infoHashBuffer":{"type":"Buffer","data":[227,26,15,126,149,65,252,28,181,162,22,181,62,126,253,167,232,131,55,168]},"announce":[],"urlList":[]}}